<svg width="50" height="50" viewBox="0 0 50 50" fill="none" xmlns="http://www.w3.org/2000/svg">
<g clip-path="url(#clip0_2193_11)">
<path d="M41.6667 45.8333H8.33337V41.6667C8.33337 38.904 9.43084 36.2545 11.3843 34.301C13.3378 32.3475 15.9874 31.25 18.75 31.25H31.25C34.0127 31.25 36.6622 32.3475 38.6157 34.301C40.5692 36.2545 41.6667 38.904 41.6667 41.6667V45.8333ZM25 27.0833C23.3585 27.0833 21.7331 26.76 20.2165 26.1318C18.6999 25.5037 17.3219 24.5829 16.1612 23.4222C15.0005 22.2614 14.0797 20.8835 13.4515 19.3669C12.8234 17.8503 12.5 16.2249 12.5 14.5833C12.5 12.9418 12.8234 11.3164 13.4515 9.7998C14.0797 8.28323 15.0005 6.90524 16.1612 5.74451C17.3219 4.58378 18.6999 3.66303 20.2165 3.03485C21.7331 2.40667 23.3585 2.08334 25 2.08334C28.3152 2.08334 31.4947 3.4003 33.8389 5.74451C36.1831 8.08871 37.5 11.2681 37.5 14.5833C37.5 17.8986 36.1831 21.078 33.8389 23.4222C31.4947 25.7664 28.3152 27.0833 25 27.0833Z" fill="#666666"/>
</g>
<defs>
<clipPath id="clip0_2193_11">
<rect width="50" height="50" fill="white"/>
</clipPath>
</defs>
</svg>
